<svg width="545" height="545" viewBox="0 0 545 545" fill="none" xmlns="http://www.w3.org/2000/svg">
<g clip-path="url(#clip0_5_2)">
<path d="M272.11 0C2.09998 0 0 121.83 0 272.11C0 422.39 2.09998 544.22 272.11 544.22C542.12 544.22 544.22 422.39 544.22 272.11C544.22 121.83 542.12 0 272.11 0Z" fill="#EA3C3C"/>
<path d="M244.183 136C239.775 136 235.367 138.459 233.331 143.367L222.357 169.809C212.879 192.647 195.21 210.877 173.004 220.735L144.112 233.566C134.629 237.772 134.629 251.559 144.112 255.769L173.936 269.014C195.583 278.622 212.941 296.197 222.583 318.282L233.416 343.105C236.02 349.067 242.155 351.303 247.405 349.812C250.555 348.917 253.388 346.682 254.951 343.105L265.784 318.282C275.426 296.197 292.779 278.622 314.43 269.014L344.255 255.769C346.625 254.718 348.401 253.076 349.587 251.125C350.179 250.15 350.628 249.095 350.924 248.007C351.221 246.919 351.367 245.797 351.367 244.672C351.367 243.547 351.221 242.416 350.924 241.328C350.035 238.065 347.811 235.145 344.255 233.566L315.363 220.735C293.157 210.877 275.488 192.647 266.01 169.809L255.035 143.367C253 138.459 248.592 136 244.183 136ZM357.66 308.532C355.297 308.532 352.938 309.848 351.848 312.479L348.711 320.025C343.371 332.903 333.414 343.186 320.893 348.747L312.028 352.685C306.954 354.937 306.954 362.316 312.028 364.573L321.411 368.747C333.618 374.173 343.412 384.083 348.843 396.536L351.885 403.526C353.281 406.722 356.569 407.914 359.384 407.115C361.073 406.636 362.589 405.443 363.425 403.526L366.477 396.536C371.908 384.083 381.692 374.173 393.9 368.747L403.292 364.573C404.561 364.01 405.511 363.13 406.146 362.086C406.463 361.565 406.703 361.001 406.862 360.419C407.179 359.255 407.179 358.013 406.862 356.849C406.545 355.684 405.902 354.594 404.95 353.75C404.473 353.327 403.927 352.967 403.292 352.685L394.427 348.747C389.732 346.66 385.397 343.91 381.531 340.608C380.242 339.508 379 338.351 377.819 337.132C374.277 333.475 371.246 329.298 368.823 324.726C368.015 323.202 367.277 321.634 366.609 320.025L363.472 312.479C362.382 309.848 360.023 308.532 357.66 308.532Z" fill="white"/>
</g>
<defs>
<clipPath id="clip0_5_2">
<rect width="544.22" height="544.22" fill="white"/>
</clipPath>
</defs>
</svg>
