<svg width="24" height="24" viewBox="0 0 24 24" fill="none" xmlns="http://www.w3.org/2000/svg">
<path d="M9.52388 0C9.13217 0 8.74045 0.217492 8.5596 0.651542L7.58444 2.99026C6.7423 5.01014 5.17228 6.62246 3.19915 7.4944L0.631924 8.62918C-0.210641 9.00117 -0.210641 10.2206 0.631924 10.593L3.28202 11.7644C5.20543 12.6142 6.74782 14.1686 7.60453 16.1219L8.56713 18.3173C8.79856 18.8447 9.34368 19.0424 9.81015 18.9106C10.09 18.8314 10.3418 18.6338 10.4806 18.3173L11.4432 16.1219C12.2999 14.1686 13.8419 12.6142 15.7657 11.7644L18.4158 10.593C18.6265 10.5 18.7843 10.3547 18.8896 10.1822C18.9423 10.096 18.9821 10.0026 19.0085 9.90644C19.0348 9.81024 19.0478 9.71101 19.0478 9.6115C19.0478 9.51198 19.0348 9.41193 19.0085 9.31572C18.9295 9.02709 18.7318 8.76884 18.4158 8.62918L15.8486 7.4944C13.8755 6.62246 12.3055 5.01014 11.4633 2.99026L10.4882 0.651542C10.3073 0.217492 9.91559 0 9.52388 0ZM19.6069 15.2596C19.3969 15.2596 19.1873 15.376 19.0905 15.6087L18.8118 16.2761C18.3373 17.415 17.4525 18.3246 16.34 18.8164L15.5523 19.1647C15.1014 19.3639 15.1014 20.0165 15.5523 20.2161L16.386 20.5852C17.4707 21.0651 18.3409 21.9417 18.8235 23.0431L19.0938 23.6613C19.2179 23.9439 19.51 24.0494 19.7601 23.9788C19.9102 23.9364 20.045 23.8309 20.1192 23.6613L20.3904 23.0431C20.873 21.9417 21.7424 21.0651 22.8271 20.5852L23.6616 20.2161C23.7744 20.1663 23.8588 20.0885 23.9152 19.9962C23.9434 19.95 23.9647 19.9002 23.9788 19.8487C24.0071 19.7457 24.0071 19.6359 23.9788 19.5329C23.9506 19.4299 23.8935 19.3335 23.8089 19.2588C23.7666 19.2215 23.718 19.1896 23.6616 19.1647L22.8739 18.8164C22.4567 18.6318 22.0716 18.3886 21.728 18.0965C21.6135 17.9992 21.5031 17.8969 21.3982 17.7891C21.0835 17.4657 20.8142 17.0962 20.5988 16.6918C20.5271 16.557 20.4614 16.4184 20.4021 16.2761L20.1234 15.6087C20.0266 15.376 19.8169 15.2596 19.6069 15.2596Z" fill="white"/>
</svg>
